g Cylinder001
v 0.02523627 0.0006108456 4.097819E-09
v 0.02478728 0.09710538 0
v 0.02329135 0.09710553 -0.008476257
v 0.02371385 0.0006110013 -0.008631085
v 0.01898792 0.09710547 -0.01593285
v 0.01933148 0.0006108046 -0.01622116
v 0.01239338 0.09710534 -0.02146759
v 0.01261827 0.0006108046 -0.0218547
v 0.004304251 0.0971035 -0.02441015
v 0.004382142 0.0006089687 -0.02485222
v -0.004304153 0.09710324 -0.02441015
v -0.004382011 0.0006089687 -0.02485226
v 0.02371464 0.0006110013 0.008631114
v 0.02329187 0.09710553 0.008477307
v 0.01933187 0.0006108046 0.01622117
v 0.01898818 0.09710547 0.01593285
v 0.01261801 0.0006113291 0.0218547
v 0.01239351 0.0971056 0.02146549
v 0.004382175 0.0006089687 0.02485225
v 0.00430412 0.0971035 0.0244091
v -0.00438211 0.0006089687 0.02485224
v -0.004304284 0.09710324 0.0244091
v -0.01261748 0.0006090999 0.02185471
v -0.01239338 0.0971056 0.02146549
v -0.01933135 0.0006108046 0.01622115
v -0.01898739 0.09710521 0.01593285
v -0.02371359 0.0006108701 0.008631078
v -0.02329135 0.09710541 0.008477307
v -0.02523575 0.0006108086 -8.195639E-09
v -0.02478623 0.09710535 0
v -0.02371411 0.0006108701 -0.00863111
v -0.02329187 0.09710541 -0.008476257
v -0.01933187 0.0006108046 -0.01622117
v -0.01898766 0.09710521 -0.0159318
v -0.01261774 0.0006108046 -0.02185469
v -0.01239325 0.09710547 -0.02146759
v -0.004382011 0.0006089687 -0.02485226
v -0.004304153 0.09710324 -0.02441015
v -0.01159008 0.1037525 -0.02007446
v -0.004025239 0.103751 -0.0228261
v -0.01775752 0.1037527 -0.01490374
v -0.02178257 0.103753 -0.007927609
v -0.02318015 0.1037528 2.098084E-06
v -0.02178178 0.103753 0.007927609
v -0.01775765 0.1037527 0.01490269
v -0.01159034 0.103753 0.02007761
v -0.004025304 0.103751 0.02282715
v 0.004025206 0.103751 0.02282715
v 0.01158994 0.1037532 0.02007761
v 0.01775726 0.1037526 0.01490269
v 0.02178283 0.1037528 0.007927609
v 0.0231812 0.1037528 2.098084E-06
v 0.02178204 0.1037528 -0.007927609
v 0.01775739 0.1037526 -0.01490374
v 0.0115906 0.1037527 -0.02007446
v 0.004025304 0.1037508 -0.0228261
v -0.004025239 0.103751 -0.0228261
v 0.008870763 0.1337158 -0.003231049
v 0.009439868 0.1337156 0
v 0.007231307 0.1337156 -0.006067657
v 0.004720065 0.1337156 -0.008175182
v 0.001639259 0.1337155 -0.009296608
v -0.001639292 0.1337156 -0.009296608
v 0.007947934 0.1556897 -0.002895355
v 0.008458096 0.1556898 0
v 0.006479144 0.1556899 -0.005436135
v 0.004229015 0.1556898 -0.007323361
v 0.001468724 0.1556897 -0.00833149
v -0.001468708 0.1556898 -0.00833149
v 0.008870894 0.1337157 0.003226853
v 0.007231373 0.1337157 0.006068707
v 0.004719967 0.1337156 0.008174133
v 0.001639226 0.1337155 0.009296608
v -0.001639275 0.1337156 0.009296608
v -0.004720098 0.1337156 0.008174133
v -0.007231439 0.1337156 0.006068707
v -0.008870566 0.1337158 0.003226853
v -0.009440064 0.1337155 0
v -0.008870698 0.1337157 -0.003231049
v -0.007231569 0.1337156 -0.006067657
v -0.00472 0.1337156 -0.008175182
v -0.001639292 0.1337156 -0.009296608
v -0.004229015 0.1556898 -0.007323361
v -0.001468708 0.1556898 -0.00833149
v -0.006479275 0.1556899 -0.005436135
v -0.007947999 0.1556897 -0.002895355
v -0.008457834 0.1556898 0
v -0.00794813 0.1556899 0.002892208
v -0.006479275 0.1556899 0.005436135
v -0.004228983 0.1556898 0.007326508
v -0.001468773 0.1556898 0.00833149
v 0.001468724 0.1556897 0.00833149
v 0.004229081 0.1556898 0.007326508
v 0.006479079 0.1556898 0.005436135
v 0.007947737 0.1556899 0.002892208
v -0.005030123 0.1582594 0.008710193
v -0.007706851 0.1582593 0.006465245
v -0.007560378 0.1660089 0.006340408
v -0.009274185 0.1660091 0.003376866
v -0.009453833 0.1582595 0.003442955
v -0.009869188 0.1660089 -1.049042E-06
v -0.01006044 0.1582593 3.147125E-06
v -0.009274185 0.1660091 -0.003373718
v -0.009453702 0.1582595 -0.003438759
v -0.007560248 0.1660089 -0.006345653
v -0.007706786 0.1582594 -0.006465245
v -0.004934692 0.1660089 -0.008548642
v -0.00503009 0.1582594 -0.008711243
v -0.001713839 0.1660088 -0.009717274
v -0.001746966 0.1582595 -0.009908199
v -0.004934627 0.1660089 0.008547592
v -0.001746999 0.1582594 0.009906101
v -0.001713806 0.166009 0.009719372
v 0.00174695 0.1582594 0.009906101
v 0.00171379 0.1660089 0.009719372
v 0.005030188 0.1582594 0.008710193
v 0.004934528 0.166009 0.008547592
v 0.007706589 0.1582595 0.006465245
v 0.007560116 0.1660089 0.006341457
v 0.00945344 0.1582595 0.003442955
v 0.009273988 0.1660091 0.003376866
v 0.01006018 0.1582593 3.147125E-06
v 0.009869319 0.1660089 -1.049042E-06
v 0.009453505 0.1582595 -0.003438759
v 0.009273988 0.1660091 -0.003373718
v 0.007706523 0.1582595 -0.006465245
v 0.007560313 0.166009 -0.006345653
v 0.00503009 0.1582594 -0.008711243
v 0.004934561 0.166009 -0.008548642
v 0.00174695 0.1582594 -0.009908199
v 0.00171379 0.1660088 -0.009717274
v -0.001746966 0.1582595 -0.009908199
v -0.001713839 0.1660088 -0.009717274
v 0.01933187 0.0006108046 0.01622117
v 0.004382175 0.0006089687 0.02485225
v 0.01261801 0.0006113291 0.0218547
v 0.02523627 0.0006108456 4.097819E-09
v 0.01933148 0.0006108046 -0.01622116
v -0.02371359 0.0006108701 0.008631078
v -0.01261748 0.0006090999 0.02185471
v -0.00438211 0.0006089687 0.02485224
v -0.01933135 0.0006108046 0.01622115
v -0.01261774 0.0006108046 -0.02185469
v -0.02371411 0.0006108701 -0.00863111
v -0.02523575 0.0006108086 -8.195639E-09
v -0.01933187 0.0006108046 -0.01622117
v 0.004382142 0.0006089687 -0.02485222
v -0.004382011 0.0006089687 -0.02485226
v 0.01261827 0.0006108046 -0.0218547
v 0.02371385 0.0006110013 -0.008631085
v 0.02371464 0.0006110013 0.008631114
v 2.55082E-09 0.1663011 3.147125E-06
v 0.009273988 0.1660091 -0.003373718
v 0.009869319 0.1660089 -1.049042E-06
v 2.55082E-09 0.1663011 3.147125E-06
v 0.007560313 0.166009 -0.006345653
v 0.004934561 0.166009 -0.008548642
v 0.00171379 0.1660088 -0.009717274
v 2.55082E-09 0.1663011 3.147125E-06
v -0.001713839 0.1660088 -0.009717274
v -0.004934692 0.1660089 -0.008548642
v -0.001713839 0.1660088 -0.009717274
v -0.007560248 0.1660089 -0.006345653
v -0.009274185 0.1660091 -0.003373718
v 2.55082E-09 0.1663011 3.147125E-06
v -0.009869188 0.1660089 -1.049042E-06
v 2.55082E-09 0.1663011 3.147125E-06
v -0.009274185 0.1660091 0.003376866
v -0.007560378 0.1660089 0.006340408
v -0.004934627 0.1660089 0.008547592
v -0.001713806 0.166009 0.009719372
v 0.00171379 0.1660089 0.009719372
v 0.004934528 0.166009 0.008547592
v 0.007560116 0.1660089 0.006341457
v 0.009273988 0.1660091 0.003376866
v 2.55082E-09 0.1663011 3.147125E-06
vt 0.75 0
vt 0.75 0.4
vt 0.8055555 0.4
vt 0.8055555 0
vt 0.861111 0.4
vt 0.861111 0
vt 0.9166667 0.4
vt 0.9166667 0
vt 0.9722222 0.4
vt 0.9722222 0
vt 1.027778 0.4
vt 1.027778 0
vt 0.6944444 0
vt 0.6944444 0.4
vt 0.6388888 0
vt 0.6388888 0.4
vt 0.5833333 0
vt 0.5833333 0.4
vt 0.5277777 0
vt 0.5277777 0.4
vt 0.4722221 0
vt 0.4722221 0.4
vt 0.4166666 0
vt 0.4166666 0.4
vt 0.3611111 0
vt 0.3611111 0.4
vt 0.3055555 0
vt 0.3055555 0.4
vt 0.25 0
vt 0.25 0.4
vt 0.1944444 0
vt 0.1944444 0.4
vt 0.1388889 0
vt 0.1388889 0.4
vt 0.08333335 0
vt 0.08333335 0.4
vt 0.02777781 0
vt 0.02777781 0.4
vt 0.08333335 0.6
vt 0.02777781 0.6
vt 0.1388889 0.6
vt 0.1944444 0.6
vt 0.25 0.6
vt 0.3055555 0.6
vt 0.3611111 0.6
vt 0.4166666 0.6
vt 0.4722221 0.6
vt 0.5277777 0.6
vt 0.5833333 0.6
vt 0.6388888 0.6
vt 0.6944444 0.6
vt 0.75 0.6
vt 0.8055555 0.6
vt 0.861111 0.6
vt 0.9166667 0.6
vt 0.9722222 0.6
vt 1.027778 0.6
vt 0.8055555 0.8
vt 0.75 0.8
vt 0.861111 0.8
vt 0.9166667 0.8
vt 0.9722222 0.8
vt 1.027778 0.8
vt 0.8055555 0.9700776
vt 0.75 0.9700776
vt 0.861111 0.9700776
vt 0.9166667 0.9700776
vt 0.9722222 0.9700776
vt 1.027778 0.9700776
vt 0.6944444 0.8
vt 0.6388888 0.8
vt 0.5833333 0.8
vt 0.5277777 0.8
vt 0.4722221 0.8
vt 0.4166666 0.8
vt 0.3611111 0.8
vt 0.3055555 0.8
vt 0.25 0.8
vt 0.1944444 0.8
vt 0.1388889 0.8
vt 0.08333335 0.8
vt 0.02777781 0.8
vt 0.08333335 0.9700776
vt 0.02777781 0.9700776
vt 0.1388889 0.9700776
vt 0.1944444 0.9700776
vt 0.25 0.9700776
vt 0.3055555 0.9700776
vt 0.3611111 0.9700776
vt 0.4166666 0.9700776
vt 0.4722221 0.9700776
vt 0.5277777 0.9700776
vt 0.5833333 0.9700776
vt 0.6388888 0.9700776
vt 0.6944444 0.9700776
vt 0.4166666 0.9742318
vt 0.3611111 0.9742318
vt 0.3611111 0.9984694
vt 0.3055555 0.9984694
vt 0.3055555 0.9742317
vt 0.25 0.9984694
vt 0.25 0.9742317
vt 0.1944444 0.9984694
vt 0.1944444 0.9742318
vt 0.1388889 0.9984694
vt 0.1388889 0.9742318
vt 0.08333335 0.9984694
vt 0.08333335 0.9742318
vt 0.02777781 0.9984694
vt 0.02777782 0.9742317
vt 0.4166666 0.9984694
vt 0.4722222 0.9742318
vt 0.4722221 0.9984694
vt 0.5277777 0.9742318
vt 0.5277777 0.9984694
vt 0.5833333 0.9742317
vt 0.5833333 0.9984694
vt 0.6388888 0.9742317
vt 0.6388888 0.9984694
vt 0.6944444 0.9742318
vt 0.6944444 0.9984694
vt 0.75 0.9742317
vt 0.75 0.9984694
vt 0.8055555 0.9742318
vt 0.8055555 0.9984694
vt 0.861111 0.9742317
vt 0.861111 0.9984694
vt 0.9166667 0.9742318
vt 0.9166667 0.9984694
vt 0.9722221 0.9742317
vt 0.9722222 0.9984694
vt 1.027778 0.9742317
vt 1.027778 0.9984694
vt 0.821394 0.883022
vt 0.9924039 0.5868239
vt 0.9330128 0.7499998
vt 0.5 1
vt 0.1786062 0.8830222
vt 0.67101 0.03015366
vt 0.9330126 0.2499999
vt 0.9924039 0.4131757
vt 0.8213937 0.1169777
vt 0.06698734 0.2499999
vt 0.3289899 0.03015372
vt 0.4999999 0
vt 0.1786062 0.1169778
vt 0.007596105 0.5868241
vt 0.007596165 0.4131758
vt 0.06698728 0.7499999
vt 0.3289899 0.9698462
vt 0.6710104 0.9698462
vt 0.5 0.9999999
vt 0.8055555 0.9984694
vt 0.75 0.9984694
vt 0.5 0.9999999
vt 0.861111 0.9984694
vt 0.9166667 0.9984694
vt 0.9722222 0.9984694
vt 0.5 0.9999999
vt 1.027778 0.9984694
vt 0.08333335 0.9984694
vt 0.02777781 0.9984694
vt 0.1388889 0.9984694
vt 0.1944444 0.9984694
vt 0.5 0.9999999
vt 0.25 0.9984694
vt 0.5 0.9999999
vt 0.3055555 0.9984694
vt 0.3611111 0.9984694
vt 0.4166666 0.9984694
vt 0.4722221 0.9984694
vt 0.5277777 0.9984694
vt 0.5833333 0.9984694
vt 0.6388888 0.9984694
vt 0.6944444 0.9984694
vt 0.5 0.9999999
vn 0.9997906 -0.02046409 0
vn 0.9994449 0.03331483 0
vn 0.9391796 0.03331119 -0.3418071
vn 0.9394993 -0.02046337 -0.341939
vn 0.765606 0.03331278 -0.6424466
vn 0.7658957 -0.02046367 -0.6426391
vn 0.4996783 0.03331189 -0.8655702
vn 0.4998708 -0.0204631 -0.8658582
vn 0.1735394 0.03331172 -0.9842634
vn 0.1736204 -0.02046402 -0.9846
vn -0.1735632 0.03331158 -0.9842592
vn -0.1736204 -0.02046402 -0.9846
vn 0.9395072 -0.02046354 0.3419174
vn 0.9391796 0.03331119 0.3418071
vn 0.7658957 -0.02046367 0.6426391
vn 0.765606 0.03331278 0.6424466
vn 0.4999287 -0.02046346 0.8658247
vn 0.4997151 0.03331107 0.865549
vn 0.1736204 -0.02046402 0.9846
vn 0.1735394 0.03331172 0.9842634
vn -0.1736204 -0.02046402 0.9846
vn -0.1735512 0.03331165 0.9842613
vn -0.4999076 -0.02046259 0.865837
vn -0.4997151 0.03331107 0.865549
vn -0.7658957 -0.02046367 0.6426391
vn -0.765606 0.03331278 0.6424466
vn -0.9394993 -0.02046337 0.341939
vn -0.9391796 0.03331119 0.3418071
vn -0.9997906 -0.02046409 0
vn -0.9994449 0.03331483 0
vn -0.9394993 -0.02046337 -0.341939
vn -0.9391796 0.03331119 -0.3418071
vn -0.7658957 -0.02046367 -0.6426391
vn -0.765606 0.03331278 -0.6424466
vn -0.4998708 -0.0204631 -0.8658582
vn -0.4996783 0.03331189 -0.8655702
vn -0.1736204 -0.02046402 -0.9846
vn -0.1735632 0.03331158 -0.9842592
vn -0.4830188 0.2582893 -0.8366477
vn -0.1677592 0.2583022 -0.9513868
vn -0.740041 0.2583088 -0.6209797
vn -0.9078138 0.2582836 -0.3303991
vn -0.9660656 0.2582969 0
vn -0.9078138 0.2582836 0.3303991
vn -0.740041 0.2583088 0.6209797
vn -0.4830188 0.2582893 0.8366477
vn -0.1677592 0.2583022 0.9513868
vn 0.1677592 0.2583022 0.9513868
vn 0.4830385 0.2583 0.8366331
vn 0.7400407 0.2582916 0.6209874
vn 0.9078138 0.2582836 0.3303991
vn 0.9660656 0.2582969 0
vn 0.9078138 0.2582836 -0.3303991
vn 0.740041 0.2583088 -0.6209797
vn 0.4830188 0.2582893 -0.8366477
vn 0.1677592 0.2583022 -0.9513868
vn -0.1677592 0.2583022 -0.9513868
vn 0.9030052 0.2767096 -0.3286539
vn 0.9609544 0.2767071 0
vn 0.7361198 0.2767124 -0.6177037
vn 0.4804802 0.2767088 -0.8322085
vn 0.166867 0.2767072 -0.9463554
vn -0.166867 0.2767072 -0.9463554
vn 0.9069225 -0.2617941 -0.3300839
vn 0.9651235 -0.2617949 0
vn 0.7393268 -0.2618006 -0.6203679
vn 0.4825631 -0.2617956 -0.8358205
vn 0.1675915 -0.2617974 -0.9504606
vn -0.1675915 -0.2617974 -0.9504606
vn 0.9030015 0.2767085 0.3286648
vn 0.7361198 0.2767124 0.6177037
vn 0.4804708 0.2767105 0.8322135
vn 0.166867 0.2767072 0.9463554
vn -0.166867 0.2767072 0.9463554
vn -0.4804708 0.2767105 0.8322135
vn -0.736131 0.2767075 0.6176926
vn -0.9030052 0.2767096 0.3286539
vn -0.9609525 0.2767136 0
vn -0.9030052 0.2767096 -0.3286539
vn -0.736131 0.2767075 -0.6176926
vn -0.4804708 0.2767105 -0.8322135
vn -0.166867 0.2767072 -0.9463554
vn -0.4825537 -0.2617971 -0.8358254
vn -0.1675915 -0.2617974 -0.9504606
vn -0.7393268 -0.2618006 -0.6203679
vn -0.9069225 -0.2617941 -0.3300839
vn -0.9651219 -0.2618011 0
vn -0.9069225 -0.2617941 0.3300839
vn -0.7393212 -0.2617985 0.6203754
vn -0.4825631 -0.2617956 0.8358205
vn -0.1675915 -0.2617974 0.9504606
vn 0.1675915 -0.2617974 0.9504606
vn 0.4825631 -0.2617956 0.8358205
vn 0.7393212 -0.2617985 0.6203754
vn 0.9069182 -0.2617999 0.3300912
vn -0.4965658 -0.1204111 0.8596067
vn -0.7603111 -0.1204645 0.638291
vn -0.7656531 0.02467706 0.6427802
vn -0.9393538 0.02473787 0.3420561
vn -0.9327871 -0.1204923 0.3396909
vn -0.9996958 0.02466458 -7.039097E-05
vn -0.9927094 -0.1205324 6.196022E-05
vn -0.9394299 0.02457291 -0.341859
vn -0.9328817 -0.1204815 -0.3394348
vn -0.7659139 0.02444283 -0.6424783
vn -0.7605456 -0.1205535 -0.6379948
vn -0.4997386 0.02449115 -0.8658299
vn -0.4963434 -0.1206252 -0.859705
vn -0.1734823 0.02482315 -0.9845241
vn -0.17238 -0.1203199 -0.9776545
vn -0.5000182 0.02449587 0.8656683
vn -0.1724351 -0.1203966 0.9776353
vn -0.1736223 0.02442138 0.9845095
vn 0.1724333 -0.1203937 0.977636
vn 0.1736218 0.0244229 0.9845095
vn 0.4965353 -0.1204351 0.8596209
vn 0.4999743 0.02447451 0.8656944
vn 0.7603382 -0.1204856 0.6382546
vn 0.7656667 0.02463198 0.6427658
vn 0.9327825 -0.1205065 0.3396984
vn 0.9393553 0.0246958 0.3420552
vn 0.9927094 -0.1205326 8.277008E-05
vn 0.9996966 0.02463306 -5.492712E-05
vn 0.9328779 -0.1204839 -0.3394444
vn 0.9394289 0.02455083 -0.3418635
vn 0.7605531 -0.1205499 -0.6379864
vn 0.7659244 0.02442942 -0.6424664
vn 0.4963514 -0.1206243 -0.8597006
vn 0.4997417 0.02448868 -0.8658283
vn 0.1723805 -0.1203247 -0.9776538
vn 0.1734845 0.02482485 -0.9845237
vn -0.17238 -0.1203199 -0.9776545
vn -0.1734823 0.02482315 -0.9845241
vn 0 -1 0
vn 0 -1 0
vn 0 -1 0
vn 0 -1 0
vn 0 -1 0
vn 0 -1 0
vn 0 -1 0
vn 0 -1 0
vn 0 -1 0
vn 0 -1 0
vn 0 -1 0
vn 0 -1 0
vn 0 -1 0
vn 0 -1 0
vn 0 -1 0
vn 0 -1 0
vn 0 -1 0
vn 0 -1 0
vn 0 1 0
vn 0.02779279 0.9995626 -0.01010527
vn 0.02959302 0.999562 0
vn 0 1 0
vn 0.02264972 0.9995625 -0.01902255
vn 0.0147493 0.9995627 -0.02563117
vn 0.005107312 0.9995618 -0.02915549
vn 0 1 0
vn -0.00510615 0.999562 -0.02914983
vn -0.01476533 0.9995624 -0.02563243
vn -0.00510615 0.999562 -0.02914983
vn -0.02264446 0.9995626 -0.01902461
vn -0.02778912 0.9995628 -0.01010091
vn 0 1 0
vn -0.0295934 0.999562 0
vn 0 1 0
vn -0.02779316 0.9995626 0.01011226
vn -0.02266168 0.9995617 0.01904677
vn -0.01481808 0.999562 0.02561702
vn -0.005137226 0.9995621 0.02914171
vn 0.005138409 0.9995618 0.02915211
vn 0.01480373 0.9995621 0.02562348
vn 0.02266378 0.9995617 0.01904834
vn 0.02779052 0.9995626 0.01011932
vn 0 1 0
g Cylinder001_0
f 3/3/3 2/2/2 1/1/1
f 4/4/4 3/3/3 1/1/1
f 5/5/5 3/3/3 4/4/4
f 6/6/6 5/5/5 4/4/4
f 7/7/7 5/5/5 6/6/6
f 8/8/8 7/7/7 6/6/6
f 9/9/9 7/7/7 8/8/8
f 10/10/10 9/9/9 8/8/8
f 11/11/11 9/9/9 10/10/10
f 12/12/12 11/11/11 10/10/10
f 1/1/1 2/2/2 13/13/13
f 2/2/2 14/14/14 13/13/13
f 13/13/13 14/14/14 15/15/15
f 14/14/14 16/16/16 15/15/15
f 15/15/15 16/16/16 17/17/17
f 16/16/16 18/18/18 17/17/17
f 17/17/17 18/18/18 19/19/19
f 18/18/18 20/20/20 19/19/19
f 19/19/19 20/20/20 21/21/21
f 20/20/20 22/22/22 21/21/21
f 21/21/21 22/22/22 23/23/23
f 22/22/22 24/24/24 23/23/23
f 23/23/23 24/24/24 25/25/25
f 24/24/24 26/26/26 25/25/25
f 25/25/25 26/26/26 27/27/27
f 26/26/26 28/28/28 27/27/27
f 27/27/27 28/28/28 29/29/29
f 28/28/28 30/30/30 29/29/29
f 29/29/29 30/30/30 31/31/31
f 30/30/30 32/32/32 31/31/31
f 31/31/31 32/32/32 33/33/33
f 32/32/32 34/34/34 33/33/33
f 33/33/33 34/34/34 35/35/35
f 34/34/34 36/36/36 35/35/35
f 35/35/35 36/36/36 37/37/37
f 36/36/36 38/38/38 37/37/37
f 38/38/38 36/36/36 39/39/39
f 40/40/40 38/38/38 39/39/39
f 36/36/36 34/34/34 41/41/41
f 39/39/39 36/36/36 41/41/41
f 34/34/34 32/32/32 42/42/42
f 41/41/41 34/34/34 42/42/42
f 32/32/32 30/30/30 43/43/43
f 42/42/42 32/32/32 43/43/43
f 30/30/30 28/28/28 44/44/44
f 43/43/43 30/30/30 44/44/44
f 44/44/44 28/28/28 45/45/45
f 28/28/28 26/26/26 45/45/45
f 45/45/45 26/26/26 46/46/46
f 26/26/26 24/24/24 46/46/46
f 46/46/46 24/24/24 47/47/47
f 24/24/24 22/22/22 47/47/47
f 47/47/47 22/22/22 48/48/48
f 22/22/22 20/20/20 48/48/48
f 48/48/48 20/20/20 49/49/49
f 20/20/20 18/18/18 49/49/49
f 49/49/49 18/18/18 50/50/50
f 18/18/18 16/16/16 50/50/50
f 50/50/50 16/16/16 51/51/51
f 16/16/16 14/14/14 51/51/51
f 51/51/51 14/14/14 52/52/52
f 14/14/14 2/2/2 52/52/52
f 52/52/52 2/2/2 53/53/53
f 2/2/2 3/3/3 53/53/53
f 53/53/53 3/3/3 54/54/54
f 3/3/3 5/5/5 54/54/54
f 54/54/54 5/5/5 55/55/55
f 5/5/5 7/7/7 55/55/55
f 55/55/55 7/7/7 56/56/56
f 7/7/7 9/9/9 56/56/56
f 56/56/56 9/9/9 57/57/57
f 9/9/9 11/11/11 57/57/57
f 53/53/53 58/58/58 52/52/52
f 58/58/58 59/59/59 52/52/52
f 52/52/52 59/59/59 51/51/51
f 60/60/60 58/58/58 53/53/53
f 54/54/54 60/60/60 53/53/53
f 61/61/61 60/60/60 54/54/54
f 55/55/55 61/61/61 54/54/54
f 62/62/62 61/61/61 55/55/55
f 56/56/56 62/62/62 55/55/55
f 63/63/63 62/62/62 56/56/56
f 57/57/57 63/63/63 56/56/56
f 58/58/58 64/64/64 59/59/59
f 64/64/64 65/65/65 59/59/59
f 66/66/66 64/64/64 58/58/58
f 60/60/60 66/66/66 58/58/58
f 67/67/67 66/66/66 60/60/60
f 61/61/61 67/67/67 60/60/60
f 68/68/68 67/67/67 61/61/61
f 62/62/62 68/68/68 61/61/61
f 69/69/69 68/68/68 62/62/62
f 63/63/63 69/69/69 62/62/62
f 59/59/59 65/65/65 70/70/70
f 59/59/59 70/70/70 51/51/51
f 51/51/51 70/70/70 50/50/50
f 70/70/70 71/71/71 50/50/50
f 50/50/50 71/71/71 49/49/49
f 71/71/71 72/72/72 49/49/49
f 49/49/49 72/72/72 48/48/48
f 72/72/72 73/73/73 48/48/48
f 48/48/48 73/73/73 47/47/47
f 73/73/73 74/74/74 47/47/47
f 47/47/47 74/74/74 46/46/46
f 74/74/74 75/75/75 46/46/46
f 46/46/46 75/75/75 45/45/45
f 75/75/75 76/76/76 45/45/45
f 45/45/45 76/76/76 44/44/44
f 76/76/76 77/77/77 44/44/44
f 44/44/44 77/77/77 43/43/43
f 77/77/77 78/78/78 43/43/43
f 43/43/43 78/78/78 42/42/42
f 78/78/78 79/79/79 42/42/42
f 42/42/42 79/79/79 41/41/41
f 79/79/79 80/80/80 41/41/41
f 41/41/41 80/80/80 39/39/39
f 80/80/80 81/81/81 39/39/39
f 39/39/39 81/81/81 40/40/40
f 81/81/81 82/82/82 40/40/40
f 81/81/81 83/83/83 82/82/82
f 83/83/83 84/84/84 82/82/82
f 85/85/85 83/83/83 81/81/81
f 80/80/80 85/85/85 81/81/81
f 86/86/86 85/85/85 80/80/80
f 79/79/79 86/86/86 80/80/80
f 87/87/87 86/86/86 79/79/79
f 78/78/78 87/87/87 79/79/79
f 88/88/88 87/87/87 78/78/78
f 77/77/77 88/88/88 78/78/78
f 89/89/89 88/88/88 77/77/77
f 76/76/76 89/89/89 77/77/77
f 90/90/90 89/89/89 76/76/76
f 75/75/75 90/90/90 76/76/76
f 91/91/91 90/90/90 75/75/75
f 74/74/74 91/91/91 75/75/75
f 92/92/92 91/91/91 74/74/74
f 73/73/73 92/92/92 74/74/74
f 93/93/93 92/92/92 73/73/73
f 72/72/72 93/93/93 73/73/73
f 94/94/94 93/93/93 72/72/72
f 71/71/71 94/94/94 72/72/72
f 95/95/95 94/94/94 71/71/71
f 70/70/70 95/95/95 71/71/71
f 65/65/65 95/95/95 70/70/70
f 89/89/89 90/90/90 96/96/96
f 97/97/97 89/89/89 96/96/96
f 97/97/97 96/96/96 98/98/98
f 97/97/97 98/98/98 99/99/99
f 100/100/100 97/97/97 99/99/99
f 100/100/100 99/99/99 101/101/101
f 102/102/102 100/100/100 101/101/101
f 102/102/102 101/101/101 103/103/103
f 104/104/104 102/102/102 103/103/103
f 104/104/104 103/103/103 105/105/105
f 106/106/106 104/104/104 105/105/105
f 106/106/106 105/105/105 107/107/107
f 108/108/108 106/106/106 107/107/107
f 108/108/108 107/107/107 109/109/109
f 110/110/110 108/108/108 109/109/109
f 96/96/96 111/111/111 98/98/98
f 96/96/96 112/112/112 111/111/111
f 112/112/112 113/113/113 111/111/111
f 112/112/112 114/114/114 113/113/113
f 114/114/114 115/115/115 113/113/113
f 114/114/114 116/116/116 115/115/115
f 116/116/116 117/117/117 115/115/115
f 116/116/116 118/118/118 117/117/117
f 118/118/118 119/119/119 117/117/117
f 118/118/118 120/120/120 119/119/119
f 120/120/120 121/121/121 119/119/119
f 121/121/121 120/120/120 122/122/122
f 123/123/123 121/121/121 122/122/122
f 123/123/123 122/122/122 124/124/124
f 125/125/125 123/123/123 124/124/124
f 124/124/124 126/126/126 125/125/125
f 126/126/126 127/127/127 125/125/125
f 126/126/126 128/128/128 127/127/127
f 128/128/128 129/129/129 127/127/127
f 128/128/128 130/130/130 129/129/129
f 130/130/130 131/131/131 129/129/129
f 130/130/130 132/132/132 131/131/131
f 132/132/132 133/133/133 131/131/131
f 122/122/122 65/65/65 124/124/124
f 65/65/65 64/64/64 124/124/124
f 124/124/124 64/64/64 126/126/126
f 64/64/64 66/66/66 126/126/126
f 126/126/126 66/66/66 128/128/128
f 66/66/66 67/67/67 128/128/128
f 128/128/128 67/67/67 130/130/130
f 67/67/67 68/68/68 130/130/130
f 130/130/130 68/68/68 132/132/132
f 68/68/68 69/69/69 132/132/132
f 95/95/95 65/65/65 122/122/122
f 120/120/120 95/95/95 122/122/122
f 94/94/94 95/95/95 120/120/120
f 118/118/118 94/94/94 120/120/120
f 93/93/93 94/94/94 118/118/118
f 116/116/116 93/93/93 118/118/118
f 92/92/92 93/93/93 116/116/116
f 114/114/114 92/92/92 116/116/116
f 91/91/91 92/92/92 114/114/114
f 112/112/112 91/91/91 114/114/114
f 90/90/90 91/91/91 112/112/112
f 96/96/96 90/90/90 112/112/112
f 136/136/136 135/135/135 134/134/134
f 137/137/137 134/134/134 135/135/135
f 138/138/138 137/137/137 135/135/135
f 138/138/138 135/135/135 139/139/139
f 140/140/140 139/139/139 135/135/135
f 141/141/141 140/140/140 135/135/135
f 142/142/142 139/139/139 140/140/140
f 143/143/143 138/138/138 139/139/139
f 144/144/144 143/143/143 139/139/139
f 145/145/145 144/144/144 139/139/139
f 146/146/146 143/143/143 144/144/144
f 138/138/138 143/143/143 147/147/147
f 148/148/148 147/147/147 143/143/143
f 149/149/149 138/138/138 147/147/147
f 150/150/150 137/137/137 138/138/138
f 134/134/134 137/137/137 151/151/151
f 84/84/84 83/83/83 108/108/108
f 110/110/110 84/84/84 108/108/108
f 108/108/108 83/83/83 106/106/106
f 83/83/83 85/85/85 106/106/106
f 106/106/106 85/85/85 104/104/104
f 85/85/85 86/86/86 104/104/104
f 104/104/104 86/86/86 102/102/102
f 86/86/86 87/87/87 102/102/102
f 102/102/102 87/87/87 100/100/100
f 87/87/87 88/88/88 100/100/100
f 100/100/100 88/88/88 97/97/97
f 88/88/88 89/89/89 97/97/97
f 154/154/154 153/153/153 152/152/152
f 153/153/153 156/156/156 155/155/155
f 156/156/156 157/157/157 155/155/155
f 157/157/157 158/158/158 155/155/155
f 158/158/158 160/160/160 159/159/159
f 162/162/162 161/161/161 155/155/155
f 161/161/161 163/163/163 155/155/155
f 163/163/163 164/164/164 155/155/155
f 164/164/164 166/166/166 165/165/165
f 166/166/166 168/168/168 167/167/167
f 168/168/168 169/169/169 155/155/155
f 169/169/169 170/170/170 155/155/155
f 170/170/170 171/171/171 155/155/155
f 171/171/171 172/172/172 155/155/155
f 172/172/172 173/173/173 155/155/155
f 173/173/173 174/174/174 155/155/155
f 174/174/174 175/175/175 155/155/155
f 175/175/175 154/154/154 176/176/176
