g jumelles
v 0.06395692 0.05492887 0.08009293
v 0.06664064 0.04462649 0.0775445
v 0.05724463 0.04999518 0.0791966
v 0.05603658 0.04191662 0.07733245
v 0.06104016 0.03542532 0.07559246
v 0.06932443 0.03432415 0.07499604
v 0.07603665 0.03925784 0.07589236
v 0.07724492 0.04733634 0.07775648
v 0.07224129 0.05382755 0.07949644
v 0.06191361 0.06467678 0.05769943
v 0.0630778 0.0600664 0.05839866
v 0.05636556 0.05513268 0.05750233
v 0.05246574 0.0577323 0.05643778
v 0.05246574 0.0577323 0.05643778
v 0.05636556 0.05513268 0.05750233
v 0.05515743 0.04705411 0.05563818
v 0.05076513 0.04636117 0.05381385
v 0.05076513 0.04636117 0.05381385
v 0.05515743 0.04705411 0.05563818
v 0.06016096 0.04056283 0.05389821
v 0.05780798 0.03722447 0.05136483
v 0.05780798 0.03722447 0.05136483
v 0.06016096 0.04056283 0.05389821
v 0.06844528 0.03946154 0.05330173
v 0.06946863 0.03567427 0.05052519
v 0.06946863 0.03567427 0.05052519
v 0.06844528 0.03946154 0.05330173
v 0.07515757 0.04439522 0.05419808
v 0.07891647 0.04261873 0.05178686
v 0.07891647 0.04261873 0.05178686
v 0.07515757 0.04439522 0.05419808
v 0.07636572 0.05247385 0.05606223
v 0.08061709 0.05398986 0.05441078
v 0.08061709 0.05398986 0.05441078
v 0.07636572 0.05247385 0.05606223
v 0.07136214 0.05896503 0.05780216
v 0.07357423 0.06312657 0.05685987
v 0.07357423 0.06312657 0.05685987
v 0.07136214 0.05896503 0.05780216
v 0.0630778 0.0600664 0.05839866
v 0.06191361 0.06467678 0.05769943
v 0.0630778 0.0600664 0.05839866
v 0.06395692 0.05492887 0.08009293
v 0.05724463 0.04999518 0.0791966
v 0.05636556 0.05513268 0.05750233
v 0.05603658 0.04191662 0.07733245
v 0.05515743 0.04705411 0.05563818
v 0.06104016 0.03542532 0.07559246
v 0.06016096 0.04056283 0.05389821
v 0.06932443 0.03432415 0.07499604
v 0.06844528 0.03946154 0.05330173
v 0.07603665 0.03925784 0.07589236
v 0.07515757 0.04439522 0.05419808
v 0.07724492 0.04733634 0.07775648
v 0.07636572 0.05247385 0.05606223
v 0.07224129 0.05382755 0.07949644
v 0.07136214 0.05896503 0.05780216
v 0.05193236 0.07477051 -0.02234515
v 0.06251751 0.06872231 -0.02420633
v 0.0594941 0.08032862 -0.02133531
v 0.05057124 0.06566948 -0.02444522
v 0.05620815 0.05835673 -0.02640535
v 0.0655409 0.05711602 -0.02707733
v 0.07310265 0.06267409 -0.02606756
v 0.07446375 0.07177518 -0.02396747
v 0.06882692 0.07908787 -0.0220073
v 0.05778763 0.0868795 -0.01971482
v 0.06191361 0.06467678 0.05769943
v 0.05246574 0.0577323 0.05643778
v 0.04595784 0.07818425 -0.02129464
v 0.05076513 0.04636117 0.05381385
v 0.04382847 0.06394632 -0.02458008
v 0.05780798 0.03722447 0.05136483
v 0.0526469 0.05250613 -0.02764657
v 0.06946863 0.03567427 0.05052519
v 0.06724732 0.05056511 -0.02869784
v 0.07891647 0.04261873 0.05178686
v 0.07907716 0.05926035 -0.02711807
v 0.08061709 0.05398986 0.05441078
v 0.08120651 0.07349829 -0.02383263
v 0.07357423 0.06312657 0.05685987
v 0.07238811 0.08493847 -0.02076614
v 0.06191361 0.06467678 0.05769943
v 0.05778763 0.0868795 -0.01971482
v 0.05778763 0.0868795 -0.01971482
v 0.04595784 0.07818425 -0.02129464
v 0.05193236 0.07477051 -0.02234515
v 0.0594941 0.08032862 -0.02133531
v 0.05057124 0.06566948 -0.02444522
v 0.04382847 0.06394632 -0.02458008
v 0.05620815 0.05835673 -0.02640535
v 0.0526469 0.05250613 -0.02764657
v 0.0655409 0.05711602 -0.02707733
v 0.06724732 0.05056511 -0.02869784
v 0.07310265 0.06267409 -0.02606756
v 0.07907716 0.05926035 -0.02711807
v 0.07446375 0.07177518 -0.02396747
v 0.08120651 0.07349829 -0.02383263
v 0.06882692 0.07908787 -0.0220073
v 0.07238811 0.08493847 -0.02076614
v 0.05235093 0.02400514 0.01082032
v 0.05368792 0.01619194 0.04381357
v 0.06727182 0.03850858 0.04854793
v 0.06593479 0.04632182 0.01555469
v 0.05368792 0.01619194 0.04381357
v 0.04009515 0.02395867 0.04620359
v 0.05367907 0.04627524 0.05093804
v 0.06727182 0.03850858 0.04854793
v 0.04009515 0.02395867 0.04620359
v 0.03875821 0.03177186 0.01321028
v 0.05234212 0.05408851 0.01794465
v 0.05367907 0.04627524 0.05093804
v 0.03875821 0.03177186 0.01321028
v 0.05235093 0.02400514 0.01082032
v 0.06593479 0.04632182 0.01555469
v 0.05234212 0.05408851 0.01794465
v 0.04024728 0.01597676 0.0718293
v 0.04293104 0.005674456 0.06928089
v 0.03353513 0.01104309 0.07093298
v 0.03232674 0.002964602 0.06906887
v 0.03733034 -0.003526573 0.06732895
v 0.04561476 -0.00462791 0.06673244
v 0.05232701 0.0003058133 0.06762882
v 0.05353525 0.00838426 0.06949295
v 0.04853163 0.0148755 0.07123289
v 0.03820399 0.02572471 0.04943586
v 0.03936819 0.02111433 0.05013508
v 0.03265593 0.0161807 0.04923875
v 0.02875615 0.01878025 0.04817421
v 0.02875615 0.01878025 0.04817421
v 0.03265593 0.0161807 0.04923875
v 0.03144769 0.008102034 0.04737458
v 0.02705546 0.007409111 0.04555025
v 0.02705546 0.007409111 0.04555025
v 0.03144769 0.008102034 0.04737458
v 0.03645134 0.001610844 0.04563462
v 0.03409838 -0.001727583 0.04310118
v 0.03409838 -0.001727583 0.04310118
v 0.03645134 0.001610844 0.04563462
v 0.04473561 0.0005094801 0.04503815
v 0.0457589 -0.003277789 0.04226163
v 0.0457589 -0.003277789 0.04226163
v 0.04473561 0.0005094801 0.04503815
v 0.05144791 0.005443174 0.04593454
v 0.05520682 0.003666701 0.04352332
v 0.05520682 0.003666701 0.04352332
v 0.05144791 0.005443174 0.04593454
v 0.05265607 0.0135218 0.04779868
v 0.05690743 0.01503781 0.04614723
v 0.05690743 0.01503781 0.04614723
v 0.05265607 0.0135218 0.04779868
v 0.04765243 0.02001302 0.04953859
v 0.04986459 0.02417454 0.04859632
v 0.04986459 0.02417454 0.04859632
v 0.04765243 0.02001302 0.04953859
v 0.03936819 0.02111433 0.05013508
v 0.03820399 0.02572471 0.04943586
v 0.03936819 0.02111433 0.05013508
v 0.04024728 0.01597676 0.0718293
v 0.03353513 0.01104309 0.07093298
v 0.03265593 0.0161807 0.04923875
v 0.03232674 0.002964602 0.06906887
v 0.03144769 0.008102034 0.04737458
v 0.03733034 -0.003526573 0.06732895
v 0.03645134 0.001610844 0.04563462
v 0.04561476 -0.00462791 0.06673244
v 0.04473561 0.0005094801 0.04503815
v 0.05232701 0.0003058133 0.06762882
v 0.05144791 0.005443174 0.04593454
v 0.05353525 0.00838426 0.06949295
v 0.05265607 0.0135218 0.04779868
v 0.04853163 0.0148755 0.07123289
v 0.04765243 0.02001302 0.04953859
v 0.0282227 0.03581845 -0.0306087
v 0.03880784 0.02977025 -0.03246993
v 0.0357844 0.04137651 -0.02959889
v 0.02686153 0.02671735 -0.03270879
v 0.0324984 0.01940463 -0.03466897
v 0.0418312 0.0181639 -0.03534096
v 0.049393 0.02372206 -0.03433116
v 0.05075405 0.03282307 -0.03223104
v 0.04511724 0.04013579 -0.03027091
v 0.03407794 0.0479274 -0.02797844
v 0.03820399 0.02572471 0.04943586
v 0.02875615 0.01878025 0.04817421
v 0.02224819 0.0392322 -0.02955819
v 0.02705546 0.007409111 0.04555025
v 0.0201188 0.02499425 -0.03284364
v 0.03409838 -0.001727583 0.04310118
v 0.02893727 0.01355404 -0.03591013
v 0.0457589 -0.003277789 0.04226163
v 0.04353767 0.01161307 -0.03696138
v 0.05520682 0.003666701 0.04352332
v 0.05536751 0.0203083 -0.03538162
v 0.05690743 0.01503781 0.04614723
v 0.05749681 0.03454617 -0.03209615
v 0.04986459 0.02417454 0.04859632
v 0.04867847 0.04598645 -0.02902973
v 0.03820399 0.02572471 0.04943586
v 0.03407794 0.0479274 -0.02797844
v 0.03407794 0.0479274 -0.02797844
v 0.02224819 0.0392322 -0.02955819
v 0.0282227 0.03581845 -0.0306087
v 0.0357844 0.04137651 -0.02959889
v 0.02686153 0.02671735 -0.03270879
v 0.0201188 0.02499425 -0.03284364
v 0.0324984 0.01940463 -0.03466897
v 0.02893727 0.01355404 -0.03591013
v 0.0418312 0.0181639 -0.03534096
v 0.04353767 0.01161307 -0.03696138
v 0.049393 0.02372206 -0.03433116
v 0.05536751 0.0203083 -0.03538162
v 0.05075405 0.03282307 -0.03223104
v 0.05749681 0.03454617 -0.03209615
v 0.04511724 0.04013579 -0.03027091
v 0.04867847 0.04598645 -0.02902973
vt 0.6104854 0.9542354
vt 0.5 0.8375
vt 0.5 1
vt 0.3895146 0.9542354
vt 0.34375 0.84375
vt 0.3895146 0.7332646
vt 0.5 0.6875
vt 0.6104854 0.7332646
vt 0.65625 0.84375
vt 0.6104854 0.9542354
vt 0.6104854 0.9542354
vt 0.5 1
vt 0.5 1
vt 0.5 1
vt 0.5 1
vt 0.3895146 0.9542354
vt 0.3895146 0.9542354
vt 0.3895146 0.9542354
vt 0.3895146 0.9542354
vt 0.34375 0.84375
vt 0.34375 0.84375
vt 0.34375 0.84375
vt 0.34375 0.84375
vt 0.3895146 0.7332646
vt 0.3895146 0.7332646
vt 0.3895146 0.7332646
vt 0.3895146 0.7332646
vt 0.5 0.6875
vt 0.5 0.6875
vt 0.5 0.6875
vt 0.5 0.6875
vt 0.6104854 0.7332646
vt 0.6104854 0.7332646
vt 0.6104854 0.7332646
vt 0.6104854 0.7332646
vt 0.65625 0.84375
vt 0.65625 0.84375
vt 0.65625 0.84375
vt 0.65625 0.84375
vt 0.6104854 0.9542354
vt 0.6104854 0.9542354
vt 0.6104854 0.9542354
vt 0.6104854 0.9542354
vt 0.5 1
vt 0.5 1
vt 0.3895146 0.9542354
vt 0.3895146 0.9542354
vt 0.34375 0.84375
vt 0.34375 0.84375
vt 0.3895146 0.7332646
vt 0.3895146 0.7332646
vt 0.5 0.6875
vt 0.5 0.6875
vt 0.6104854 0.7332646
vt 0.6104854 0.7332646
vt 0.65625 0.84375
vt 0.65625 0.84375
vt 0.5 0.05411821
vt 0.5 0.15
vt 0.5706235 0.08337145
vt 0.4293765 0.08337144
vt 0.4001233 0.1539951
vt 0.4293765 0.2246187
vt 0.5 0.2538719
vt 0.5706235 0.2246187
vt 0.5998768 0.1539951
vt 0.375 0.3125
vt 0.375 0.6884398
vt 0.40625 0.6884398
vt 0.40625 0.3125
vt 0.4375 0.6884398
vt 0.4375 0.3125
vt 0.46875 0.6884398
vt 0.46875 0.3125
vt 0.5 0.6884398
vt 0.5 0.3125
vt 0.53125 0.6884398
vt 0.53125 0.3125
vt 0.5625 0.6884398
vt 0.5625 0.3125
vt 0.59375 0.6884398
vt 0.59375 0.3125
vt 0.625 0.6884398
vt 0.625 0.3125
vt 0.6104854 0.04576458
vt 0.5 1.490116E-08
vt 0.5 0.05411821
vt 0.5706235 0.08337145
vt 0.4293765 0.08337144
vt 0.3895146 0.04576458
vt 0.4001233 0.1539951
vt 0.34375 0.15625
vt 0.4293765 0.2246187
vt 0.3895146 0.2667354
vt 0.5 0.2538719
vt 0.5 0.3125
vt 0.5706235 0.2246187
vt 0.6104854 0.2667354
vt 0.5998768 0.1539951
vt 0.65625 0.15625
vt 0.375 0
vt 0.375 0.25
vt 0.625 0.25
vt 0.625 0
vt 0.375 0.25
vt 0.375 0.5
vt 0.625 0.5
vt 0.625 0.25
vt 0.375 0.5
vt 0.375 0.75
vt 0.625 0.75
vt 0.625 0.5
vt 0.375 0.75
vt 0.375 1
vt 0.625 1
vt 0.625 0.75
vt 0.6104854 0.9542354
vt 0.5 0.8375
vt 0.5 1
vt 0.3895146 0.9542354
vt 0.34375 0.84375
vt 0.3895146 0.7332646
vt 0.5 0.6875
vt 0.6104854 0.7332646
vt 0.65625 0.84375
vt 0.6104854 0.9542354
vt 0.6104854 0.9542354
vt 0.5 1
vt 0.5 1
vt 0.5 1
vt 0.5 1
vt 0.3895146 0.9542354
vt 0.3895146 0.9542354
vt 0.3895146 0.9542354
vt 0.3895146 0.9542354
vt 0.34375 0.84375
vt 0.34375 0.84375
vt 0.34375 0.84375
vt 0.34375 0.84375
vt 0.3895146 0.7332646
vt 0.3895146 0.7332646
vt 0.3895146 0.7332646
vt 0.3895146 0.7332646
vt 0.5 0.6875
vt 0.5 0.6875
vt 0.5 0.6875
vt 0.5 0.6875
vt 0.6104854 0.7332646
vt 0.6104854 0.7332646
vt 0.6104854 0.7332646
vt 0.6104854 0.7332646
vt 0.65625 0.84375
vt 0.65625 0.84375
vt 0.65625 0.84375
vt 0.65625 0.84375
vt 0.6104854 0.9542354
vt 0.6104854 0.9542354
vt 0.6104854 0.9542354
vt 0.6104854 0.9542354
vt 0.5 1
vt 0.5 1
vt 0.3895146 0.9542354
vt 0.3895146 0.9542354
vt 0.34375 0.84375
vt 0.34375 0.84375
vt 0.3895146 0.7332646
vt 0.3895146 0.7332646
vt 0.5 0.6875
vt 0.5 0.6875
vt 0.6104854 0.7332646
vt 0.6104854 0.7332646
vt 0.65625 0.84375
vt 0.65625 0.84375
vt 0.5 0.05411821
vt 0.5 0.15
vt 0.5706236 0.08337146
vt 0.4293762 0.08337148
vt 0.4001231 0.1539951
vt 0.4293762 0.2246187
vt 0.5 0.2538719
vt 0.5706236 0.2246187
vt 0.5998768 0.1539951
vt 0.375 0.3125
vt 0.375 0.6884398
vt 0.40625 0.6884398
vt 0.40625 0.3125
vt 0.4375 0.6884398
vt 0.4375 0.3125
vt 0.46875 0.6884398
vt 0.46875 0.3125
vt 0.5 0.6884398
vt 0.5 0.3125
vt 0.53125 0.6884398
vt 0.53125 0.3125
vt 0.5625 0.6884398
vt 0.5625 0.3125
vt 0.59375 0.6884398
vt 0.59375 0.3125
vt 0.625 0.6884398
vt 0.625 0.3125
vt 0.6104854 0.04576458
vt 0.5 1.490116E-08
vt 0.5 0.05411821
vt 0.5706236 0.08337146
vt 0.4293762 0.08337148
vt 0.3895146 0.04576458
vt 0.4001231 0.1539951
vt 0.34375 0.15625
vt 0.4293762 0.2246187
vt 0.3895146 0.2667354
vt 0.5 0.2538719
vt 0.5 0.3125
vt 0.5706236 0.2246187
vt 0.6104854 0.2667354
vt 0.5998768 0.1539951
vt 0.65625 0.15625
vn 0.03940126 -0.2302555 0.9723322
vn 0.03940146 -0.2302587 0.9723315
vn 0.03940086 -0.230258 0.9723316
vn 0.0394 -0.2302614 0.9723309
vn 0.03939781 -0.2302615 0.972331
vn 0.03940006 -0.2302593 0.9723314
vn 0.039405 -0.2302581 0.9723315
vn 0.03940444 -0.2302585 0.9723314
vn 0.03940215 -0.2302571 0.9723318
vn -0.2014297 0.09696402 0.9746918
vn -0.2014297 0.096964 0.9746918
vn -0.2014297 0.09696399 0.9746918
vn -0.2014298 0.09696399 0.9746918
vn -0.357208 -0.1589637 0.9203983
vn -0.357208 -0.1589637 0.9203983
vn -0.357208 -0.1589637 0.9203983
vn -0.357208 -0.1589637 0.9203983
vn -0.2825599 -0.4455119 0.849517
vn -0.2825599 -0.4455119 0.849517
vn -0.2825599 -0.4455118 0.849517
vn -0.2825599 -0.4455118 0.849517
vn -0.02121867 -0.5948433 0.8035616
vn -0.02121862 -0.5948433 0.8035616
vn -0.02121862 -0.5948433 0.8035616
vn -0.02121863 -0.5948433 0.8035616
vn 0.2737308 -0.5194719 0.8094568
vn 0.2737308 -0.5194719 0.8094568
vn 0.2737308 -0.5194719 0.8094568
vn 0.2737309 -0.5194719 0.8094568
vn 0.4295093 -0.2635464 0.8637506
vn 0.4295094 -0.2635464 0.8637506
vn 0.4295093 -0.2635464 0.8637506
vn 0.4295093 -0.2635464 0.8637506
vn 0.3548561 0.02300644 0.9346378
vn 0.3548561 0.02300645 0.9346378
vn 0.3548561 0.02300642 0.9346378
vn 0.3548561 0.02300649 0.9346378
vn 0.09351445 0.1723314 0.9805901
vn 0.09351445 0.1723315 0.9805901
vn 0.09351443 0.1723314 0.9805901
vn 0.09351443 0.1723314 0.9805901
vn -0.2451555 0.9411169 0.232804
vn -0.2451561 0.9411168 0.232804
vn -0.858316 0.4904248 0.1509208
vn -0.8583151 0.4904265 0.1509212
vn -0.9686812 -0.2475513 -0.0193686
vn -0.9686812 -0.2475511 -0.01936856
vn -0.5116097 -0.8405123 -0.1783104
vn -0.5116122 -0.8405108 -0.1783099
vn 0.2451634 -0.9411158 -0.2328003
vn 0.2451618 -0.9411162 -0.2328003
vn 0.8583119 -0.4904321 -0.1509208
vn 0.8583117 -0.4904324 -0.1509208
vn 0.9686819 0.2475487 0.01936729
vn 0.9686814 0.2475506 0.01936774
vn 0.5116092 0.8405123 0.1783119
vn 0.5116079 0.8405131 0.1783121
vn -0.03939833 0.2302608 -0.972331
vn -0.03939967 0.2302588 -0.9723315
vn -0.03939933 0.2302603 -0.9723312
vn -0.03939695 0.2302597 -0.9723314
vn -0.03939712 0.2302612 -0.972331
vn -0.03940092 0.2302611 -0.9723309
vn -0.03940146 0.2302597 -0.9723312
vn -0.03940054 0.2302601 -0.9723312
vn -0.03940077 0.2302597 -0.9723312
vn -0.2429742 0.9289323 0.2793714
vn -0.2429739 0.9289324 0.2793714
vn -0.8554201 0.4787662 0.1975841
vn -0.8554202 0.478766 0.1975841
vn -0.9656594 -0.2583524 0.02749298
vn -0.9656596 -0.2583521 0.02749307
vn -0.5091171 -0.8506288 -0.131265
vn -0.5091176 -0.8506285 -0.131265
vn 0.2467691 -0.951117 -0.1856918
vn 0.2467692 -0.951117 -0.1856918
vn 0.8592155 -0.5009515 -0.1039047
vn 0.8592156 -0.5009515 -0.1039047
vn 0.9694556 0.2361677 0.06618694
vn 0.9694557 0.2361673 0.06618688
vn 0.512914 0.8284438 0.2249446
vn 0.5129141 0.8284438 0.2249445
vn -0.2429739 0.9289324 0.2793714
vn -0.2429742 0.9289323 0.2793714
vn -0.03939983 0.230261 -0.972331
vn -0.03939888 0.2302614 -0.9723309
vn -0.03939833 0.2302608 -0.972331
vn -0.03939933 0.2302603 -0.9723312
vn -0.03939695 0.2302597 -0.9723314
vn -0.03939695 0.2302604 -0.9723312
vn -0.03939712 0.2302612 -0.972331
vn -0.03939666 0.2302627 -0.9723307
vn -0.03940092 0.2302611 -0.9723309
vn -0.03940068 0.2302625 -0.9723306
vn -0.03940146 0.2302597 -0.9723312
vn -0.03940095 0.2302602 -0.9723311
vn -0.03940054 0.2302601 -0.9723312
vn -0.03939983 0.2302601 -0.9723312
vn -0.03940077 0.2302597 -0.9723312
vn -0.03940083 0.2302597 -0.9723312
vn 0.858314 -0.4904281 -0.1509216
vn 0.858314 -0.4904281 -0.1509216
vn 0.858314 -0.4904281 -0.1509216
vn 0.858314 -0.4904281 -0.1509216
vn 0.03940086 -0.2302604 0.972331
vn 0.03940085 -0.2302604 0.972331
vn 0.03940088 -0.2302604 0.972331
vn 0.03940087 -0.2302604 0.972331
vn -0.8583132 0.4904301 0.1509201
vn -0.8583132 0.49043 0.1509201
vn -0.8583132 0.4904301 0.1509201
vn -0.8583132 0.4904301 0.1509201
vn -0.03939665 0.2302556 -0.9723324
vn -0.03939665 0.2302556 -0.9723324
vn -0.03939667 0.2302556 -0.9723324
vn -0.03939665 0.2302556 -0.9723324
vn 0.03939707 -0.2302566 0.9723321
vn 0.03939837 -0.2302585 0.9723316
vn 0.03940061 -0.2302576 0.9723317
vn 0.03939936 -0.2302581 0.9723316
vn 0.03940077 -0.2302575 0.9723318
vn 0.03939993 -0.2302592 0.9723314
vn 0.03939723 -0.2302606 0.9723312
vn 0.03939708 -0.2302602 0.9723313
vn 0.03939484 -0.2302583 0.9723318
vn -0.2014292 0.09696322 0.9746919
vn -0.2014292 0.0969632 0.9746919
vn -0.2014292 0.0969632 0.9746919
vn -0.2014291 0.0969632 0.974692
vn -0.3572108 -0.1589606 0.9203977
vn -0.3572108 -0.1589606 0.9203978
vn -0.3572108 -0.1589606 0.9203978
vn -0.3572108 -0.1589606 0.9203978
vn -0.2825632 -0.4455211 0.849511
vn -0.2825633 -0.4455211 0.849511
vn -0.2825633 -0.4455211 0.849511
vn -0.2825633 -0.4455211 0.849511
vn -0.02122495 -0.5948423 0.8035622
vn -0.02122495 -0.5948423 0.8035622
vn -0.02122494 -0.5948423 0.8035622
vn -0.02122496 -0.5948422 0.8035623
vn 0.2737298 -0.5194731 0.8094564
vn 0.2737298 -0.5194732 0.8094564
vn 0.2737298 -0.5194732 0.8094564
vn 0.2737298 -0.5194732 0.8094564
vn 0.4295087 -0.2635464 0.8637509
vn 0.4295087 -0.2635464 0.8637509
vn 0.4295087 -0.2635464 0.8637509
vn 0.4295087 -0.2635464 0.8637509
vn 0.3548515 0.02300353 0.9346396
vn 0.3548516 0.02300358 0.9346396
vn 0.3548515 0.02300352 0.9346396
vn 0.3548516 0.02300355 0.9346396
vn 0.09351168 0.1723283 0.9805909
vn 0.09351168 0.1723283 0.9805909
vn 0.09351167 0.1723282 0.9805909
vn 0.09351167 0.1723282 0.9805909
vn -0.2451577 0.9411156 0.232807
vn -0.2451578 0.9411156 0.232807
vn -0.8583109 0.4904324 0.1509253
vn -0.8583096 0.4904345 0.1509258
vn -0.9686831 -0.2475439 -0.01936778
vn -0.9686829 -0.2475443 -0.01936787
vn -0.5116088 -0.8405127 -0.178311
vn -0.5116072 -0.8405136 -0.1783113
vn 0.2451567 -0.9411178 -0.2327993
vn 0.2451543 -0.9411184 -0.2327994
vn 0.858313 -0.4904303 -0.1509202
vn 0.8583117 -0.4904325 -0.1509207
vn 0.9686815 0.2475499 0.01936783
vn 0.9686809 0.2475525 0.01936848
vn 0.5116108 0.8405111 0.1783126
vn 0.5116071 0.8405133 0.1783132
vn -0.03939953 0.2302596 -0.9723313
vn -0.03940086 0.2302606 -0.972331
vn -0.03940128 0.2302585 -0.9723315
vn -0.03940042 0.2302602 -0.9723311
vn -0.03940034 0.230258 -0.9723316
vn -0.03939917 0.2302553 -0.9723324
vn -0.03939578 0.2302588 -0.9723316
vn -0.03939377 0.2302605 -0.9723313
vn -0.03939894 0.2302581 -0.9723317
vn -0.242975 0.9289321 0.2793712
vn -0.2429746 0.9289322 0.2793713
vn -0.855419 0.4787676 0.1975849
vn -0.8554193 0.4787673 0.1975848
vn -0.9656596 -0.258352 0.02749359
vn -0.9656594 -0.2583526 0.02749344
vn -0.5091167 -0.850629 -0.131265
vn -0.5091178 -0.8506284 -0.1312648
vn 0.2467723 -0.9511162 -0.1856917
vn 0.2467718 -0.9511164 -0.1856917
vn 0.8592151 -0.5009522 -0.1039048
vn 0.8592148 -0.5009529 -0.1039049
vn 0.9694556 0.2361678 0.06618649
vn 0.9694557 0.2361676 0.06618642
vn 0.512914 0.8284439 0.2249443
vn 0.5129131 0.8284444 0.2249444
vn -0.2429746 0.9289322 0.2793713
vn -0.242975 0.9289321 0.2793712
vn -0.03940101 0.2302572 -0.9723318
vn -0.03939901 0.2302589 -0.9723315
vn -0.03939953 0.2302596 -0.9723313
vn -0.03940128 0.2302585 -0.9723315
vn -0.03940042 0.2302602 -0.9723311
vn -0.03939984 0.23026 -0.9723312
vn -0.03940034 0.230258 -0.9723316
vn -0.03940022 0.230257 -0.9723319
vn -0.03939917 0.2302553 -0.9723324
vn -0.03939843 0.2302539 -0.9723327
vn -0.03939578 0.2302588 -0.9723316
vn -0.03939359 0.2302578 -0.972332
vn -0.03939377 0.2302605 -0.9723313
vn -0.03939165 0.2302603 -0.9723315
vn -0.03939894 0.2302581 -0.9723317
vn -0.0393981 0.2302575 -0.9723319
g jumelles_0
f 3/3/3 2/2/2 1/1/1
f 4/4/4 2/2/2 3/3/3
f 5/5/5 2/2/2 4/4/4
f 6/6/6 2/2/2 5/5/5
f 7/7/7 2/2/2 6/6/6
f 8/8/8 2/2/2 7/7/7
f 9/9/9 2/2/2 8/8/8
f 1/1/1 2/2/2 9/9/9
f 12/12/12 11/11/11 10/10/10
f 13/13/13 12/12/12 10/10/10
f 16/16/16 15/15/15 14/14/14
f 17/17/17 16/16/16 14/14/14
f 20/20/20 19/19/19 18/18/18
f 21/21/21 20/20/20 18/18/18
f 24/24/24 23/23/23 22/22/22
f 25/25/25 24/24/24 22/22/22
f 28/28/28 27/27/27 26/26/26
f 29/29/29 28/28/28 26/26/26
f 32/32/32 31/31/31 30/30/30
f 33/33/33 32/32/32 30/30/30
f 36/36/36 35/35/35 34/34/34
f 37/37/37 36/36/36 34/34/34
f 40/40/40 39/39/39 38/38/38
f 41/41/41 40/40/40 38/38/38
f 44/44/44 43/43/43 42/42/42
f 45/45/45 44/44/44 42/42/42
f 46/46/46 44/44/44 45/45/45
f 47/47/47 46/46/46 45/45/45
f 48/48/48 46/46/46 47/47/47
f 49/49/49 48/48/48 47/47/47
f 50/50/50 48/48/48 49/49/49
f 51/51/51 50/50/50 49/49/49
f 52/52/52 50/50/50 51/51/51
f 53/53/53 52/52/52 51/51/51
f 54/54/54 52/52/52 53/53/53
f 55/55/55 54/54/54 53/53/53
f 56/56/56 54/54/54 55/55/55
f 57/57/57 56/56/56 55/55/55
f 43/43/43 56/56/56 57/57/57
f 42/42/42 43/43/43 57/57/57
f 60/60/60 59/59/59 58/58/58
f 58/58/58 59/59/59 61/61/61
f 61/61/61 59/59/59 62/62/62
f 62/62/62 59/59/59 63/63/63
f 63/63/63 59/59/59 64/64/64
f 64/64/64 59/59/59 65/65/65
f 65/65/65 59/59/59 66/66/66
f 66/66/66 59/59/59 60/60/60
f 69/69/69 68/68/68 67/67/67
f 70/70/70 69/69/69 67/67/67
f 71/71/71 69/69/69 70/70/70
f 72/72/72 71/71/71 70/70/70
f 73/73/73 71/71/71 72/72/72
f 74/74/74 73/73/73 72/72/72
f 75/75/75 73/73/73 74/74/74
f 76/76/76 75/75/75 74/74/74
f 77/77/77 75/75/75 76/76/76
f 78/78/78 77/77/77 76/76/76
f 79/79/79 77/77/77 78/78/78
f 80/80/80 79/79/79 78/78/78
f 81/81/81 79/79/79 80/80/80
f 82/82/82 81/81/81 80/80/80
f 83/83/83 81/81/81 82/82/82
f 84/84/84 83/83/83 82/82/82
f 87/87/87 86/86/86 85/85/85
f 88/88/88 87/87/87 85/85/85
f 87/87/87 89/89/89 86/86/86
f 89/89/89 90/90/90 86/86/86
f 89/89/89 91/91/91 90/90/90
f 91/91/91 92/92/92 90/90/90
f 91/91/91 93/93/93 92/92/92
f 93/93/93 94/94/94 92/92/92
f 93/93/93 95/95/95 94/94/94
f 95/95/95 96/96/96 94/94/94
f 95/95/95 97/97/97 96/96/96
f 97/97/97 98/98/98 96/96/96
f 97/97/97 99/99/99 98/98/98
f 99/99/99 100/100/100 98/98/98
f 100/100/100 99/99/99 88/88/88
f 85/85/85 100/100/100 88/88/88
f 103/103/103 102/102/102 101/101/101
f 104/104/104 103/103/103 101/101/101
f 107/107/107 106/106/106 105/105/105
f 108/108/108 107/107/107 105/105/105
f 111/111/111 110/110/110 109/109/109
f 112/112/112 111/111/111 109/109/109
f 115/115/115 114/114/114 113/113/113
f 116/116/116 115/115/115 113/113/113
f 119/119/119 118/118/118 117/117/117
f 120/120/120 118/118/118 119/119/119
f 121/121/121 118/118/118 120/120/120
f 122/122/122 118/118/118 121/121/121
f 123/123/123 118/118/118 122/122/122
f 124/124/124 118/118/118 123/123/123
f 125/125/125 118/118/118 124/124/124
f 117/117/117 118/118/118 125/125/125
f 128/128/128 127/127/127 126/126/126
f 129/129/129 128/128/128 126/126/126
f 132/132/132 131/131/131 130/130/130
f 133/133/133 132/132/132 130/130/130
f 136/136/136 135/135/135 134/134/134
f 137/137/137 136/136/136 134/134/134
f 140/140/140 139/139/139 138/138/138
f 141/141/141 140/140/140 138/138/138
f 144/144/144 143/143/143 142/142/142
f 145/145/145 144/144/144 142/142/142
f 148/148/148 147/147/147 146/146/146
f 149/149/149 148/148/148 146/146/146
f 152/152/152 151/151/151 150/150/150
f 153/153/153 152/152/152 150/150/150
f 156/156/156 155/155/155 154/154/154
f 157/157/157 156/156/156 154/154/154
f 160/160/160 159/159/159 158/158/158
f 161/161/161 160/160/160 158/158/158
f 162/162/162 160/160/160 161/161/161
f 163/163/163 162/162/162 161/161/161
f 164/164/164 162/162/162 163/163/163
f 165/165/165 164/164/164 163/163/163
f 166/166/166 164/164/164 165/165/165
f 167/167/167 166/166/166 165/165/165
f 168/168/168 166/166/166 167/167/167
f 169/169/169 168/168/168 167/167/167
f 170/170/170 168/168/168 169/169/169
f 171/171/171 170/170/170 169/169/169
f 172/172/172 170/170/170 171/171/171
f 173/173/173 172/172/172 171/171/171
f 159/159/159 172/172/172 173/173/173
f 158/158/158 159/159/159 173/173/173
f 176/176/176 175/175/175 174/174/174
f 174/174/174 175/175/175 177/177/177
f 177/177/177 175/175/175 178/178/178
f 178/178/178 175/175/175 179/179/179
f 179/179/179 175/175/175 180/180/180
f 180/180/180 175/175/175 181/181/181
f 181/181/181 175/175/175 182/182/182
f 182/182/182 175/175/175 176/176/176
f 185/185/185 184/184/184 183/183/183
f 186/186/186 185/185/185 183/183/183
f 187/187/187 185/185/185 186/186/186
f 188/188/188 187/187/187 186/186/186
f 189/189/189 187/187/187 188/188/188
f 190/190/190 189/189/189 188/188/188
f 191/191/191 189/189/189 190/190/190
f 192/192/192 191/191/191 190/190/190
f 193/193/193 191/191/191 192/192/192
f 194/194/194 193/193/193 192/192/192
f 195/195/195 193/193/193 194/194/194
f 196/196/196 195/195/195 194/194/194
f 197/197/197 195/195/195 196/196/196
f 198/198/198 197/197/197 196/196/196
f 199/199/199 197/197/197 198/198/198
f 200/200/200 199/199/199 198/198/198
f 203/203/203 202/202/202 201/201/201
f 204/204/204 203/203/203 201/201/201
f 203/203/203 205/205/205 202/202/202
f 205/205/205 206/206/206 202/202/202
f 205/205/205 207/207/207 206/206/206
f 207/207/207 208/208/208 206/206/206
f 207/207/207 209/209/209 208/208/208
f 209/209/209 210/210/210 208/208/208
f 209/209/209 211/211/211 210/210/210
f 211/211/211 212/212/212 210/210/210
f 211/211/211 213/213/213 212/212/212
f 213/213/213 214/214/214 212/212/212
f 213/213/213 215/215/215 214/214/214
f 215/215/215 216/216/216 214/214/214
f 216/216/216 215/215/215 204/204/204
f 201/201/201 216/216/216 204/204/204
