g Mesh_Global_photo
v 0.001719475 0.00609476 -0.05852738
v 0.03128242 0.004389348 -0.06497166
v -0.02447033 0.00422634 0.06353762
v -0.05233002 0.005291562 0.02696143
v -0.04388905 0.004210182 0.06768498
v 0.06766129 0.004389348 0.04393095
v 0.04393005 0.004316989 -0.06766555
v -0.04842281 0.0156432 -0.04642525
v -0.06254387 0.01515703 -0.02418518
v -0.06581783 0.02067423 -0.04175587
v 0.01782799 0.004101777 -0.08466026
v 0.04157257 0.00315868 -0.08971041
v -0.03574371 0.00310311 0.08845822
v -0.0694685 0.003441287 0.05301774
v -0.06090832 0.003103109 0.09380955
v 0.09380913 0.003103109 0.06090841
v 0.06090832 0.003103109 -0.09380955
v -0.03295708 0.01299636 -0.07293829
v -0.08001518 0.01164018 0.001054503
v -0.08915234 0.03719804 -0.0557455
vt 0.6210335 1
vt 0.8866584 1
vt 0.1741863 0
vt 0 0.3672668
vt 0 0
vt 1 0
vt 1 1
vt 0.162609 1
vt 0 0.8359914
vt 0 1
vt 0.7219469 1
vt 0.8751269 1
vt 0.1626488 0
vt 0 0.2644493
vt 0 0
vt 1 0
vt 1 1
vt 0.3903679 1
vt 0 0.6062526
vt 0 1
vn 0.06169876 0.9971754 0.04283176
vn 0.007133393 0.9999585 0.00565972
vn 0.02019088 0.9996907 0.0145221
vn 0.0610529 0.997234 0.04239031
vn 0.03310373 0.9991806 0.02328612
vn -0.0008077247 0.9999996 0.0002698231
vn -0.0008077247 0.9999996 0.0002698231
vn 0.2177614 0.9644721 0.1495779
vn 0.2177445 0.9644778 0.1495658
vn 0.3263903 0.9175001 0.227295
vn 0.05017068 0.9981455 0.0344753
vn 0.00318473 0.9999926 0.002160202
vn 0.008551197 0.9999459 0.005921174
vn 0.04925766 0.9982123 0.0338515
vn 0.01527713 0.9998267 0.0106349
vn 0.0004206523 0.9999999 0.0002230601
vn 0.0004206523 0.9999999 0.0002230601
vn 0.2224237 0.9631285 0.1513643
vn 0.2225404 0.9630894 0.1514414
vn 0.4537615 0.8376886 0.303938
g Mesh_Global_photo_0
f 3/3/3 2/2/2 1/1/1
f 1/1/1 4/4/4 3/3/3
f 4/4/4 5/5/5 3/3/3
f 3/3/3 6/6/6 2/2/2
f 6/6/6 7/7/7 2/2/2
f 1/1/1 8/8/8 4/4/4
f 8/8/8 9/9/9 4/4/4
f 8/8/8 10/10/10 9/9/9
f 13/13/13 12/12/12 11/11/11
f 11/11/11 14/14/14 13/13/13
f 14/14/14 15/15/15 13/13/13
f 13/13/13 16/16/16 12/12/12
f 16/16/16 17/17/17 12/12/12
f 11/11/11 18/18/18 14/14/14
f 18/18/18 19/19/19 14/14/14
f 18/18/18 20/20/20 19/19/19
