g Mesh_Global_cercle
v 0.04690146 -1.148739E-17 -0.01204205
v -2.444307E-07 2.414259E-25 0
v 0.04243159 -1.039291E-17 -0.02332735
v 0.03529715 -8.645493E-18 -0.03314686
v 0.02594637 -6.354904E-18 -0.04088402
v 0.01496386 -3.664946E-18 -0.04605198
v 0.003041023 -7.447167E-19 -0.04832649
v -0.009072548 2.222291E-18 -0.04756451
v -0.02061773 5.049742E-18 -0.04381371
v -0.03086591 7.559839E-18 -0.03730965
v -0.03917337 9.594872E-18 -0.02846193
v -0.04502226 1.102714E-17 -0.01782513
v -0.04803968 1.176646E-17 -0.006068707
v -0.04803968 1.176646E-17 0.006068945
v -0.04502226 1.102714E-17 0.01782537
v -0.03917337 9.594872E-18 0.02846169
v -0.03086591 7.559839E-18 0.03730965
v -0.02061773 5.049742E-18 0.04381347
v -0.009072548 2.222291E-18 0.04756427
v 0.003041023 -7.447018E-19 0.04832649
v 0.01496291 -3.664916E-18 0.04605198
v 0.02594542 -6.354858E-18 0.04088402
v 0.03529715 -8.645493E-18 0.0331471
v 0.04243159 -1.039291E-17 0.02332735
v 0.04690146 -1.148739E-17 0.01204205
v 0.04842257 -1.185997E-17 0
vt 0.6625547 0.6219729
vt 0.5112135 0.576865
vt 0.6481365 0.658389
vt 0.625115 0.6900755
vt 0.5949365 0.7150413
vt 0.5594975 0.7317176
vt 0.5210246 0.7390567
vt 0.4819353 0.7365974
vt 0.4446856 0.7244943
vt 0.4116161 0.7035077
vt 0.3848047 0.6749565
vt 0.365936 0.6406345
vt 0.3561957 0.6026984
vt 0.3561957 0.5635318
vt 0.365936 0.5255956
vt 0.3848046 0.4912736
vt 0.4116161 0.4627224
vt 0.4446855 0.4417358
vt 0.4819352 0.4296326
vt 0.5210246 0.4271733
vt 0.5594975 0.4345124
vt 0.5949365 0.4511888
vt 0.6251149 0.4761545
vt 0.6481365 0.507841
vt 0.6625547 0.5442572
vt 0.6674636 0.583115
vn 0 1 0
vn 0 1 0
vn 0 1 0
vn 0 1 0
vn 0 1 0
vn 0 1 0
vn 0 1 0
vn 0 1 0
vn 0 1 0
vn 0 1 0
vn 0 1 0
vn 0 1 0
vn 0 1 0
vn 0 1 0
vn 0 1 0
vn 0 1 0
vn 0 1 0
vn 0 1 0
vn 0 1 0
vn 0 1 0
vn 0 1 0
vn 0 1 0
vn 0 1 0
vn 0 1 0
vn 0 1 0
vn 0 1 0
g Mesh_Global_cercle_0
f 3/3/3 2/2/2 1/1/1
f 4/4/4 2/2/2 3/3/3
f 5/5/5 2/2/2 4/4/4
f 6/6/6 2/2/2 5/5/5
f 7/7/7 2/2/2 6/6/6
f 8/8/8 2/2/2 7/7/7
f 9/9/9 2/2/2 8/8/8
f 10/10/10 2/2/2 9/9/9
f 11/11/11 2/2/2 10/10/10
f 12/12/12 2/2/2 11/11/11
f 13/13/13 2/2/2 12/12/12
f 14/14/14 2/2/2 13/13/13
f 15/15/15 2/2/2 14/14/14
f 16/16/16 2/2/2 15/15/15
f 17/17/17 2/2/2 16/16/16
f 18/18/18 2/2/2 17/17/17
f 19/19/19 2/2/2 18/18/18
f 20/20/20 2/2/2 19/19/19
f 21/21/21 2/2/2 20/20/20
f 22/22/22 2/2/2 21/21/21
f 23/23/23 2/2/2 22/22/22
f 24/24/24 2/2/2 23/23/23
f 25/25/25 2/2/2 24/24/24
f 26/26/26 2/2/2 25/25/25
f 1/1/1 2/2/2 26/26/26
