g Props_SewerPlate_A
v 0.2381319 0.07737365 -0.01097557
v 0.2381319 0.07737365 0.008471606
v 0.2025671 0.1471735 0.008471634
v 0.2025671 0.1471735 -0.01097554
v 0.1471736 0.2025669 0.008471657
v 0.1471736 0.2025669 -0.01097552
v 0.07737375 0.2381318 0.008471671
v 0.07737375 0.2381318 -0.01097551
v 3.165901E-08 0.2503865 0.008471675
v 3.165901E-08 0.2503865 -0.0109755
v 3.165901E-08 0.2503865 -0.0109755
v 3.165901E-08 0.2503865 0.008471675
v -0.0773737 0.2381317 0.008471671
v -0.0773737 0.2381317 -0.01097551
v -0.1471735 0.2025669 0.008471657
v -0.1471735 0.2025669 -0.01097552
v -0.2025669 0.1471734 0.008471634
v -0.2025669 0.1471734 -0.01097554
v -0.2381318 0.07737361 0.008471606
v -0.2381318 0.07737362 -0.01097557
v -0.2381318 0.07737362 -0.01097557
v -0.2381318 0.07737361 0.008471606
v -0.2503865 -6.880777E-08 0.008471576
v -0.2503865 -6.103913E-08 -0.0109756
v -0.2381318 -0.07737374 0.008471544
v -0.2381318 -0.07737374 -0.01097563
v -0.2025669 -0.1471735 0.008471517
v -0.2025669 -0.1471735 -0.01097566
v -0.1471735 -0.202567 0.008471495
v -0.1471735 -0.202567 -0.01097568
v -0.1471735 -0.202567 -0.01097568
v -0.1471735 -0.202567 0.008471495
v -0.07737366 -0.2381318 0.008471481
v -0.07737366 -0.2381318 -0.0109757
v 2.419691E-08 -0.2503865 0.008471475
v 2.419691E-08 -0.2503865 -0.0109757
v 0.07737371 -0.2381318 0.008471481
v 0.07737371 -0.2381318 -0.0109757
v 0.1471735 -0.202567 0.008471495
v 0.1471735 -0.202567 -0.01097568
v 0.1471735 -0.202567 -0.01097568
v 0.1471735 -0.202567 0.008471495
v 0.202567 -0.1471735 0.008471517
v 0.202567 -0.1471735 -0.01097566
v 0.2381318 -0.07737374 0.008471544
v 0.2381318 -0.07737373 -0.01097563
v 0.2503865 -6.880777E-08 0.008471576
v 0.2503865 -6.103913E-08 -0.0109756
v 0.2381319 0.07737365 0.008471606
v 0.2381319 0.07737365 -0.01097557
v 0.2503865 -6.880777E-08 0.008471576
v 3.484022E-08 -4.033653E-08 0.008471583
v 0.2381319 0.07737365 0.008471606
v 0.2025671 0.1471735 0.008471634
v 0.1471736 0.2025669 0.008471657
v 0.07737375 0.2381318 0.008471671
v 3.165901E-08 0.2503865 0.008471675
v -0.0773737 0.2381317 0.008471671
v -0.1471735 0.2025669 0.008471657
v -0.2025669 0.1471734 0.008471634
v -0.2381318 0.07737361 0.008471606
v -0.2503865 -6.880777E-08 0.008471576
v -0.2381318 -0.07737374 0.008471544
v -0.2025669 -0.1471735 0.008471517
v -0.1471735 -0.202567 0.008471495
v -0.07737366 -0.2381318 0.008471481
v 2.419691E-08 -0.2503865 0.008471475
v 0.07737371 -0.2381318 0.008471481
v 0.1471735 -0.202567 0.008471495
v 0.202567 -0.1471735 0.008471517
v 0.2381318 -0.07737374 0.008471544
vt 0.8980177 0.09259524
vt 0.8970492 0.09228053
vt 0.8930626 0.1001048
vt 0.8938864 0.1007034
vt 0.8868532 0.1063143
vt 0.8874517 0.107138
vt 0.8790289 0.1103009
vt 0.8793435 0.1112693
vt 0.8703555 0.1116746
vt 0.8703555 0.1126929
vt 0.8703555 0.1126929
vt 0.8703555 0.1116746
vt 0.8616822 0.1103009
vt 0.8613676 0.1112693
vt 0.853858 0.1063143
vt 0.8532594 0.107138
vt 0.8476486 0.1001048
vt 0.8468248 0.1007034
vt 0.8436619 0.09228053
vt 0.8426934 0.09259524
vt 0.8426934 0.09259524
vt 0.8436619 0.09228053
vt 0.8422882 0.08360722
vt 0.8412699 0.08360722
vt 0.8436619 0.07493397
vt 0.8426934 0.07461926
vt 0.8476486 0.06710961
vt 0.8468248 0.06651112
vt 0.853858 0.06090023
vt 0.8532594 0.06007643
vt 0.8532594 0.06007643
vt 0.853858 0.06090023
vt 0.8616822 0.05691357
vt 0.8613676 0.05594512
vt 0.8703555 0.05553992
vt 0.8703555 0.05452158
vt 0.8790289 0.05691357
vt 0.8793435 0.05594512
vt 0.8868532 0.06090023
vt 0.8874517 0.06007643
vt 0.8874517 0.06007643
vt 0.8868532 0.06090023
vt 0.8930625 0.06710961
vt 0.8938864 0.06651112
vt 0.8970492 0.07493397
vt 0.8980177 0.07461926
vt 0.898423 0.08360722
vt 0.8994412 0.08360722
vt 0.8970492 0.09228053
vt 0.8980177 0.09259524
vt 0.898423 0.08360722
vt 0.8703555 0.08360722
vt 0.8970492 0.09228053
vt 0.8930626 0.1001048
vt 0.8868532 0.1063143
vt 0.8790289 0.1103009
vt 0.8703555 0.1116746
vt 0.8616822 0.1103009
vt 0.853858 0.1063143
vt 0.8476486 0.1001048
vt 0.8436619 0.09228053
vt 0.8422882 0.08360722
vt 0.8436619 0.07493397
vt 0.8476486 0.06710961
vt 0.853858 0.06090023
vt 0.8616822 0.05691357
vt 0.8703555 0.05553992
vt 0.8790289 0.05691357
vt 0.8868532 0.06090023
vt 0.8930625 0.06710961
vt 0.8970492 0.07493397
vn 0.9510568 0.3090161 0
vn 0.9510568 0.3090161 0
vn 0.8090168 0.5877855 0
vn 0.8090168 0.5877855 0
vn 0.5877852 0.8090171 0
vn 0.5877852 0.8090171 0
vn 0.3090169 0.9510565 0
vn 0.3090169 0.9510565 0
vn 0 1 0
vn 0 1 0
vn 0 1 0
vn 0 1 0
vn -0.3090172 0.9510565 0
vn -0.3090172 0.9510565 0
vn -0.5877855 0.8090168 0
vn -0.5877855 0.8090168 0
vn -0.809017 0.5877853 0
vn -0.809017 0.5877853 0
vn -0.9510565 0.3090171 0
vn -0.9510565 0.3090171 0
vn -0.9510565 0.3090171 0
vn -0.9510565 0.3090171 0
vn -1 0 0
vn -1 0 0
vn -0.9510565 -0.3090172 0
vn -0.9510565 -0.3090172 0
vn -0.8090168 -0.5877855 0
vn -0.8090168 -0.5877855 0
vn -0.5877852 -0.809017 0
vn -0.5877852 -0.809017 0
vn -0.5877852 -0.809017 0
vn -0.5877852 -0.809017 0
vn -0.3090168 -0.9510565 0
vn -0.3090168 -0.9510565 0
vn 0 -1 0
vn 0 -1 0
vn 0.3090169 -0.9510565 0
vn 0.3090169 -0.9510565 0
vn 0.5877852 -0.809017 0
vn 0.5877852 -0.809017 0
vn 0.5877852 -0.809017 0
vn 0.5877852 -0.809017 0
vn 0.8090168 -0.5877854 0
vn 0.8090168 -0.5877854 0
vn 0.9510565 -0.3090171 0
vn 0.9510565 -0.3090171 0
vn 1 0 0
vn 1 0 0
vn 0.9510568 0.3090161 0
vn 0.9510568 0.3090161 0
vn 0 0 1
vn 0 0 1
vn 0 0 1
vn 0 0 1
vn 0 0 1
vn 0 0 1
vn 0 0 1
vn 0 0 1
vn 0 0 1
vn 0 0 1
vn 0 0 1
vn 0 0 1
vn 0 0 1
vn 0 0 1
vn 0 0 1
vn 0 0 1
vn 0 0 1
vn 0 0 1
vn 0 0 1
vn 0 0 1
vn 0 0 1
g Props_SewerPlate_A_0
f 3/3/3 2/2/2 1/1/1
f 4/4/4 3/3/3 1/1/1
f 5/5/5 3/3/3 4/4/4
f 6/6/6 5/5/5 4/4/4
f 7/7/7 5/5/5 6/6/6
f 8/8/8 7/7/7 6/6/6
f 9/9/9 7/7/7 8/8/8
f 10/10/10 9/9/9 8/8/8
f 13/13/13 12/12/12 11/11/11
f 14/14/14 13/13/13 11/11/11
f 15/15/15 13/13/13 14/14/14
f 16/16/16 15/15/15 14/14/14
f 17/17/17 15/15/15 16/16/16
f 18/18/18 17/17/17 16/16/16
f 19/19/19 17/17/17 18/18/18
f 20/20/20 19/19/19 18/18/18
f 23/23/23 22/22/22 21/21/21
f 24/24/24 23/23/23 21/21/21
f 25/25/25 23/23/23 24/24/24
f 26/26/26 25/25/25 24/24/24
f 27/27/27 25/25/25 26/26/26
f 28/28/28 27/27/27 26/26/26
f 29/29/29 27/27/27 28/28/28
f 30/30/30 29/29/29 28/28/28
f 33/33/33 32/32/32 31/31/31
f 34/34/34 33/33/33 31/31/31
f 35/35/35 33/33/33 34/34/34
f 36/36/36 35/35/35 34/34/34
f 37/37/37 35/35/35 36/36/36
f 38/38/38 37/37/37 36/36/36
f 39/39/39 37/37/37 38/38/38
f 40/40/40 39/39/39 38/38/38
f 43/43/43 42/42/42 41/41/41
f 44/44/44 43/43/43 41/41/41
f 45/45/45 43/43/43 44/44/44
f 46/46/46 45/45/45 44/44/44
f 47/47/47 45/45/45 46/46/46
f 48/48/48 47/47/47 46/46/46
f 49/49/49 47/47/47 48/48/48
f 50/50/50 49/49/49 48/48/48
f 53/53/53 52/52/52 51/51/51
f 54/54/54 52/52/52 53/53/53
f 55/55/55 52/52/52 54/54/54
f 56/56/56 52/52/52 55/55/55
f 57/57/57 52/52/52 56/56/56
f 58/58/58 52/52/52 57/57/57
f 59/59/59 52/52/52 58/58/58
f 60/60/60 52/52/52 59/59/59
f 61/61/61 52/52/52 60/60/60
f 62/62/62 52/52/52 61/61/61
f 63/63/63 52/52/52 62/62/62
f 64/64/64 52/52/52 63/63/63
f 65/65/65 52/52/52 64/64/64
f 66/66/66 52/52/52 65/65/65
f 67/67/67 52/52/52 66/66/66
f 68/68/68 52/52/52 67/67/67
f 69/69/69 52/52/52 68/68/68
f 70/70/70 52/52/52 69/69/69
f 71/71/71 52/52/52 70/70/70
f 51/51/51 52/52/52 71/71/71
